<?xml version="1.0"?>
<svg xmlns="http://www.w3.org/2000/svg" version="1.2" baseProfile="tiny" width="800" height="1255" viewBox="0 0 800 1255" stroke-linecap="round" stroke-linejoin="round">
<g id="COUNTY_MOI_1130718">
<path d="M 435.69 17.43 437.64 19.93 435.52 20.03 435.69 17.43 Z M 441.9 12.51 442.7 13.42 441.9 14.09 440.87 13.53 441.9 12.51 Z" fill-rule="evenodd"/>
<path d="M 596.02 110.71 592.85 111.84 592.12 113.15 589.9 114.46 589.71 115.73 587.04 117.98 585.42 121.09 584.57 124.78 584.67 129.13 585.87 132.21 586.01 134.98 587.1 138.49 589.68 140.71 588.49 142.55 588.79 145.8 586.31 146.92 586.17 148.66 587 149.69 583.17 153.65 582.33 155.69 582.01 158.48 580.75 161.61 581 162.96 576.32 162.07 573.17 160.76 569.8 158.64 569.08 159.68 569.96 161.42 567.33 161.55 567.93 163.17 564.25 162.39 561.29 160.79 559.41 161.09 555.8 159.1 554.68 157.67 551.77 157.93 549.66 158.82 548.98 157.19 546.91 157.11 545.86 155.79 546.1 153.68 545.29 153.09 547.22 149.94 548.42 149.56 551.86 146.22 551.31 144.16 552.68 142.79 551.97 141.33 553.9 140.21 556.38 134.96 557.99 134.91 562.44 133.76 562.95 132.41 566.41 131.27 567.01 129.8 566.75 126.01 568.98 125.62 569.73 124.33 572.76 123.71 577.75 120.67 579.97 120.6 581.85 119.12 582.44 117.21 585.52 116.83 587.1 115.35 586.14 113.91 586.72 112.49 590.63 111.96 594.29 110.33 596.02 110.71 Z"/>
<path d="M 477.91 171.42 481.65 172.68 483.83 177.7 485.19 178.72 490.1 179.6 491.11 182.24 491.37 185.31 493.49 185.23 495.28 186.53 492.38 186.99 493.05 188.81 492.8 190.5 491.4 191.56 492.05 193.53 490.71 198.14 490.61 200.02 494.34 203.78 492.29 204.37 488.55 203.98 485.28 203.19 482.17 203.27 477.55 201.93 476.07 200.92 471.16 201.05 470.36 201.46 466.29 201.69 462.14 200.6 459.43 198.1 462.35 195.51 464.41 191.09 466.2 189.8 466.94 187.69 468.33 186.54 468.95 182.93 472.06 180.05 473.23 178.44 474.74 174.37 476.92 172.85 477.91 171.42 Z"/>
<path d="M 547.27 170.14 547.79 171.96 545.92 172.28 542.97 173.73 542.45 177 545.15 178.52 545.71 180.98 542.59 183.39 542.79 184.52 540.78 188.23 542.17 190.3 541.26 194.89 541.43 196.73 539.19 200.07 538.3 204.44 536.49 205.54 538.33 207.64 539.3 210.4 538.85 214.12 537.1 218.92 535.65 218.89 533.68 219.98 531.98 222.61 531.93 224.63 527.64 225.59 525.79 225.31 525.29 226.8 523.48 228.75 524.5 230.59 521.62 231.81 520.4 229.71 517.1 229.14 513.97 228.66 507.83 229.01 506.9 228.05 506.59 225.9 505.45 223.92 506.63 219.93 501.1 217.77 499.37 218.08 498.82 217.22 496.29 217.33 493.92 218.11 491.9 217.37 491.41 216.18 492.79 213.26 492.24 209.02 493.51 206.9 492.29 204.37 494.34 203.78 490.61 200.02 490.71 198.14 492.05 193.53 491.4 191.56 492.8 190.5 493.05 188.81 492.38 186.99 495.28 186.53 497.45 187.23 499.44 186.93 500.56 187.74 502.48 186.92 504.56 184.43 505.33 182.61 507.07 182.04 507.01 180.24 508.29 177.89 512.21 178.51 514.16 179.22 516.53 177.63 518.49 178.48 520.32 177.7 521.64 175.42 524.54 175.52 528.7 172.2 531.02 172.28 533.55 170 534.57 171.02 537.62 169.69 539.05 170.44 540.39 168.6 542.16 169.49 545.82 169.4 547.27 170.14 Z"/>
<path d="M 448.53 224.87 446.93 228.35 444.51 228.35 444.1 229.86 442.21 228.87 448.53 224.87 Z M 492.29 204.37 493.51 206.9 492.24 209.02 492.79 213.26 491.41 216.18 491.9 217.37 493.92 218.11 496.29 217.33 498.82 217.22 499.37 218.08 499.61 220.13 498.36 221.35 494.67 220.61 493.11 221.09 492.7 219.44 489.9 220.29 487.31 220.22 484.2 219.34 481.27 216.19 475.2 217.42 473.69 216.82 470.86 218.32 470.09 219.4 462.8 224.13 461.48 225.67 459.64 226.42 456.34 225.98 453.59 225.13 453.1 222.86 453.4 221.11 452.91 217.34 451.88 215.55 453.56 211.74 453.68 210.58 455.42 206.49 454.46 204.5 458.43 200.37 459.43 198.1 462.14 200.6 466.29 201.69 470.36 201.46 471.16 201.05 476.07 200.92 477.55 201.93 482.17 203.27 485.28 203.19 488.55 203.98 492.29 204.37 Z" fill-rule="evenodd"/>
<path d="M 509.83 278.16 510.15 280.21 512.86 281.54 512.1 284.13 512.19 286.41 511.31 288.02 508.59 288.02 507.66 289.58 504.6 290.2 503.71 292.25 501.75 294.83 500.54 298.09 500.04 300.97 501.86 304.91 500.99 308.26 502.83 309.36 503.97 311.44 501.5 312.44 500.67 315.06 502.27 316.94 503.61 317.09 504.53 319.22 503.89 321.12 504.64 322.49 507.86 325.06 510 326.14 512.31 324.84 512.52 326.14 511.88 328.84 512.15 330.62 511.65 333.69 512.14 337.19 512.11 340.23 512.7 341.43 510.71 344.21 508.38 345.2 508.09 348.04 510.03 351.74 508.78 352.23 506.52 349.26 503.45 348.54 502.02 347.32 500.75 348.08 500.05 350.41 497.78 349.28 498.02 345.64 496.47 343.92 495.8 342.25 497.31 339.74 496.9 337.65 498.27 336.83 494.76 325.87 492.99 324.11 493.21 323.14 491.96 319.65 489.53 317.31 488 315.22 485.19 313.42 478.06 309.75 475.39 307.45 475.27 303.56 476.82 300.12 477.06 297.27 476.12 295.8 476.35 292.09 477.84 287.9 477.69 284.54 478.86 279.13 479.45 278.54 482.09 279.3 485.55 279.27 489.59 275.8 492.65 274.86 493.9 276.86 495.13 277.05 497.31 275.21 500.29 275.77 503.11 278.77 506.58 276.38 507.36 276.34 509.83 278.16 Z"/>
<path d="M 583.3 98.73 582.26 100.6 580.91 99.99 579.59 100.9 579.83 102.78 581.12 103.91 580.08 104.93 577.73 105.26 576.17 104.06 574.3 103.77 571.73 102.06 570.47 97.99 573.45 97.19 575.96 95.57 579 97.16 580.33 96.6 583.3 98.73 Z"/>
<path d="M 565.11 93.96 566.12 94.61 567.7 98.73 567.03 100.52 569.62 102.62 568.66 105.62 571.31 107.22 567.04 108.82 567.15 112.48 564.34 112.15 562.44 110.27 562.2 109.1 560.27 107.72 558.98 108.64 558.27 106.62 559.66 105.79 560.1 103.92 558.7 101.81 556.21 101 556.86 99.09 559.77 95.86 562.9 94.6 563.86 93.08 565.11 93.96 Z"/>
<path d="M 575.96 95.57 573.45 97.19 570.47 97.99 571.73 102.06 574.3 103.77 576.17 104.06 577.73 105.26 580.08 104.93 581.12 103.91 579.83 102.78 579.59 100.9 580.91 99.99 582.26 100.6 583.3 98.73 590.62 100.02 592.51 99.89 592.93 100.92 592.05 103.28 593.33 104.45 593.12 106.18 594.54 107.74 596.61 107.31 599.22 108.54 596.02 110.71 594.29 110.33 590.63 111.96 586.72 112.49 586.14 113.91 587.1 115.35 585.52 116.83 582.44 117.21 581.85 119.12 579.97 120.6 577.75 120.67 572.76 123.71 569.73 124.33 568.98 125.62 566.75 126.01 567.01 129.8 566.41 131.27 562.95 132.41 562.44 133.76 557.99 134.91 557.54 133.16 555.67 132.42 553.56 127.92 555.6 126.13 554.72 125.4 552.95 122.26 551.94 121.62 550 122.34 548.42 121.94 547.2 117.79 545.57 117.21 545.28 115.93 546.18 112.47 547.25 110.77 549.29 111.2 550.48 109.73 551.98 109.44 550.64 104.44 548.2 104.29 547.73 103.03 544.13 101.81 542.6 100.17 548.09 99.09 550.93 97.82 553.2 95.5 553.21 93.79 554.54 92.4 555.85 89.6 558.06 88.19 561.58 87.01 562.19 86.14 564.27 86.54 565.63 86 569.19 87.95 570.03 90.56 571.75 92.7 575.96 95.57 Z M 565.11 93.96 563.86 93.08 562.9 94.6 559.77 95.86 556.86 99.09 556.21 101 558.7 101.81 560.1 103.92 559.66 105.79 558.27 106.62 558.98 108.64 560.27 107.72 562.2 109.1 562.44 110.27 564.34 112.15 567.15 112.48 567.04 108.82 571.31 107.22 568.66 105.62 569.62 102.62 567.03 100.52 567.7 98.73 566.12 94.61 565.11 93.96 Z" fill-rule="evenodd"/>
<path d="M 555.8 159.1 554.51 160.46 554.46 162.39 553.55 163.51 550.2 165.76 550.56 167.67 549.15 167.9 547.27 170.14 545.82 169.4 542.16 169.49 540.39 168.6 539.05 170.44 537.62 169.69 534.57 171.02 533.55 170 531.02 172.28 528.7 172.2 524.54 175.52 521.64 175.42 520.32 177.7 518.49 178.48 516.53 177.63 514.16 179.22 512.21 178.51 508.29 177.89 507.01 180.24 507.07 182.04 505.33 182.61 504.56 184.43 502.48 186.92 500.56 187.74 499.44 186.93 497.45 187.23 495.28 186.53 493.49 185.23 491.37 185.31 491.11 182.24 490.1 179.6 485.19 178.72 483.83 177.7 481.65 172.68 477.91 171.42 479.45 170.08 483.16 162.92 485.94 160.26 486.11 159.5 490.84 153.18 492.23 154.16 496.33 158.81 499.33 160.1 501.53 161.92 505.21 162.91 507.41 164.9 510.64 164.56 512.96 164.77 514.36 163.88 513.94 161.36 515.39 160.8 519.73 161.83 520.8 161.66 523.19 164.38 526.17 162.41 527.21 162.78 529.98 161.31 531.46 159.49 533.57 159.41 535.31 157.77 538.53 157.61 539.51 154.76 540.69 153.36 541.55 154.19 544.35 153.78 545.29 153.09 546.1 153.68 545.86 155.79 546.91 157.11 548.98 157.19 549.66 158.82 551.77 157.93 554.68 157.67 555.8 159.1 Z"/>
<path d="M 493.31 248.31 491.99 251 491.96 252.18 490.43 253.11 488.22 256.23 488.2 256.93 485.57 260.49 483.67 261.5 481.6 263.64 478.24 265.57 477.02 267.48 474.77 272.42 471.72 272.28 469.86 274.29 464.45 273.33 462.57 273.56 459.41 272.95 457.21 272.04 455.86 272.79 455.64 269.81 454.6 267.84 452.73 265.92 449 263.32 446.72 262.51 444.37 260 444.94 257.85 446.26 256.02 447.15 252.5 448.25 250.19 448.49 247.29 449.49 245.11 449.72 242.48 450.85 241.59 451.42 239.26 455.19 241.74 456.16 243.05 459.47 242.72 460.81 240.29 463.8 238.63 465.11 236.51 468.25 235.69 469.53 234.48 474.22 233.61 476.48 233.53 480.6 234.93 479.98 236.8 481.68 237.01 481.59 238.41 484.44 240.22 483.07 241.47 483.04 244.44 483.65 246.48 482.8 247.16 485.6 248.85 487.45 249.04 488.89 247.9 493.31 248.31 Z"/>
<path d="M 542.6 100.17 544.13 101.81 547.73 103.03 548.2 104.29 550.64 104.44 551.98 109.44 550.48 109.73 549.29 111.2 547.25 110.77 546.18 112.47 545.28 115.93 545.57 117.21 547.2 117.79 548.42 121.94 550 122.34 551.94 121.62 552.95 122.26 554.72 125.4 555.6 126.13 553.56 127.92 555.67 132.42 557.54 133.16 557.99 134.91 556.38 134.96 553.9 140.21 551.97 141.33 549.6 141.17 548.51 139.32 548.07 135.49 546.2 133.54 543.86 133.21 544.5 131.3 543.76 130.26 544.51 128.56 542.14 127.31 539.07 124.67 537.77 125.08 532.39 121.42 533.06 120.38 532.61 118.72 529.31 118.57 525.23 116.91 524.77 114.37 523.45 113.61 519.02 114.08 521.29 111.08 522.67 107.77 524.49 105.98 530.21 103.38 532.73 102.78 537.02 100.78 540.76 99.71 542.6 100.17 Z"/>
<path d="M 515.38 131.87 518.39 131.93 517.7 133.79 521.55 137.49 526.2 139.65 526.93 141.48 525.3 144.11 526.71 145.27 525.67 146.71 526.07 148.63 528.08 148.79 530.11 147.72 533.66 148.31 537.17 147.35 537.54 148.64 540.62 151.38 540.69 153.36 539.51 154.76 538.53 157.61 535.31 157.77 533.57 159.41 531.46 159.49 529.98 161.31 527.21 162.78 526.17 162.41 523.19 164.38 520.8 161.66 519.73 161.83 515.39 160.8 513.94 161.36 514.36 163.88 512.96 164.77 510.64 164.56 507.41 164.9 505.21 162.91 501.53 161.92 499.33 160.1 496.33 158.81 492.23 154.16 490.84 153.18 493.71 150.28 495.76 146.83 498.19 140.61 501.33 138.22 501.47 137.43 503.89 135.44 506.58 135 509.17 132.66 510.61 129.86 512.39 130.25 515.38 131.87 Z"/>
<path d="M 477.2 225.33 478.38 226.7 479.99 226.33 482.03 228.72 480.91 230.45 478.85 229.76 476.58 231.48 475.77 229.8 474.67 229.86 472.97 228.13 474.42 226.83 477.2 225.33 Z"/>
<path d="M 499.37 218.08 501.1 217.77 506.63 219.93 505.45 223.92 506.59 225.9 506.9 228.05 507.83 229.01 513.97 228.66 517.1 229.14 514.82 230.14 512.35 230.6 511.59 231.82 508.63 233.05 507.01 236.54 505.15 237.14 503.47 239.1 501.5 238.94 500.7 240.69 497.91 241.72 496.45 243.61 492.55 242.71 492.14 244.84 493.31 248.31 488.89 247.9 487.45 249.04 485.6 248.85 482.8 247.16 483.65 246.48 483.04 244.44 483.07 241.47 484.44 240.22 481.59 238.41 481.68 237.01 479.98 236.8 480.6 234.93 476.48 233.53 474.22 233.61 469.53 234.48 468.25 235.69 465.11 236.51 463.8 238.63 460.81 240.29 459.47 242.72 456.16 243.05 455.19 241.74 451.42 239.26 452.48 235.77 454.53 235.69 453.57 232.34 453.89 230.33 451.49 225.58 453.59 225.13 456.34 225.98 459.64 226.42 461.48 225.67 462.8 224.13 470.09 219.4 470.86 218.32 473.69 216.82 475.2 217.42 481.27 216.19 484.2 219.34 487.31 220.22 489.9 220.29 492.7 219.44 493.11 221.09 494.67 220.61 498.36 221.35 499.61 220.13 499.37 218.08 Z M 477.2 225.33 474.42 226.83 472.97 228.13 474.67 229.86 475.77 229.8 476.58 231.48 478.85 229.76 480.91 230.45 482.03 228.72 479.99 226.33 478.38 226.7 477.2 225.33 Z" fill-rule="evenodd"/>
<path d="M 305.16 151.92 306.75 152.73 306.53 154.13 303.87 155.34 302.48 155.17 303.73 152.26 305.16 151.92 Z M 317.87 145.99 319.28 146.37 321.84 149.74 322.95 152.16 321.37 154.94 319.79 155.7 319.14 154.46 315.88 153.58 313.38 154.53 311.84 157.03 308.94 156.68 308.45 154.86 309.34 152.72 308.09 150.48 308.6 149.3 310.59 149.04 311.62 150.15 314.1 150.72 315.87 149.01 315.74 147.87 317.87 145.99 Z" fill-rule="evenodd"/>
<path d="M 521.62 231.81 522.72 232.8 522.46 234.35 520.52 235.22 519.5 236.87 521.24 238.82 524.2 240.38 524.06 241.69 522.65 242.63 519.34 243.94 518.1 243.92 515.57 246.71 513.81 247.29 511.66 255.21 511.76 258.01 510.2 261.19 511.14 262.42 509.74 263.35 509.53 265.25 507.3 267.44 506.42 268.93 507.01 273.29 508.06 275.17 509.45 275.39 510.21 276.99 509.83 278.16 507.36 276.34 506.58 276.38 503.11 278.77 500.29 275.77 497.31 275.21 495.13 277.05 493.9 276.86 492.65 274.86 489.59 275.8 485.55 279.27 482.09 279.3 479.45 278.54 478.86 279.13 477.69 284.54 477.84 287.9 476.35 292.09 476.12 295.8 477.06 297.27 476.82 300.12 475.27 303.56 475.39 307.45 473.63 307.04 467.36 302.83 465.88 300.48 462.82 297.03 462.79 295.29 461.74 293.21 462.88 291.29 462.23 288 458.3 279.95 455.86 272.79 457.21 272.04 459.41 272.95 462.57 273.56 464.45 273.33 469.86 274.29 471.72 272.28 474.77 272.42 477.02 267.48 478.24 265.57 481.6 263.64 483.67 261.5 485.57 260.49 488.2 256.93 488.22 256.23 490.43 253.11 491.96 252.18 491.99 251 493.31 248.31 492.14 244.84 492.55 242.71 496.45 243.61 497.91 241.72 500.7 240.69 501.5 238.94 503.47 239.1 505.15 237.14 507.01 236.54 508.63 233.05 511.59 231.82 512.35 230.6 514.82 230.14 517.1 229.14 520.4 229.71 521.62 231.81 Z"/>
<path d="M 559.93 337.49 560.6 337.83 564.75 337.53 564.88 340.93 567.61 342.67 566.84 343.98 565.02 343.81 564.42 342.77 562.58 342.22 560.4 340.25 559.93 337.49 Z M 558.89 291.12 560.33 291.15 559.51 293.58 557.48 293.54 556.84 291.66 558.89 291.12 Z M 559.25 231.85 557.58 235.63 557.38 238.3 556.58 241.42 555.41 241.71 554.3 243.33 552.89 247.5 551.58 249.61 552.32 253.18 551.71 255.31 552.6 256.18 550.39 258.41 549.08 258.35 548.21 259.64 546.75 264.37 545.19 267.35 542.25 271.23 538.9 276.21 536.79 276.59 535.41 277.64 535.1 279.24 536.16 281.84 534.62 282.86 534.28 284.65 530.45 287.84 526.79 289.49 523.51 291.67 522.17 293.32 521.15 298.04 519.3 299.57 517.25 304.63 516.08 308.77 512.21 317.94 511.97 322.41 512.31 324.84 510 326.14 507.86 325.06 504.64 322.49 503.89 321.12 504.53 319.22 503.61 317.09 502.27 316.94 500.67 315.06 501.5 312.44 503.97 311.44 502.83 309.36 500.99 308.26 501.86 304.91 500.04 300.97 500.54 298.09 501.75 294.83 503.71 292.25 504.6 290.2 507.66 289.58 508.59 288.02 511.31 288.02 512.19 286.41 512.1 284.13 512.86 281.54 510.15 280.21 509.83 278.16 510.21 276.99 509.45 275.39 508.06 275.17 507.01 273.29 506.42 268.93 507.3 267.44 509.53 265.25 509.74 263.35 511.14 262.42 510.2 261.19 511.76 258.01 511.66 255.21 513.81 247.29 515.57 246.71 518.1 243.92 519.34 243.94 522.65 242.63 524.84 243.16 525.91 246.41 526.97 247.65 530.55 248.41 531.37 250.11 534.17 249.43 535.26 249.94 537.02 254.51 539.94 255.59 541.11 257.74 545.15 257.23 545.81 254.22 545.27 253.02 546.64 251.95 548.56 246.1 550 244.78 549.87 242.73 552.49 238.81 551.73 235.74 553.26 233.06 555.33 231.17 559.25 231.85 Z" fill-rule="evenodd"/>
<path d="M 581 162.96 578.97 165.73 578.65 167.19 576.53 168.63 575.68 169.98 573.02 171.53 571.95 174.18 572.37 177.11 568.87 180.62 568.67 182.82 569.77 185.26 571.13 186.93 569.59 190.02 567.92 191.33 568.31 192.85 567.24 198.82 565.54 202.43 565.22 206.68 563.41 210.18 563.73 211.23 562.98 214.55 562 216.86 561.9 219.23 560.44 222.73 559.83 225.39 560.64 227.76 559.25 231.85 555.33 231.17 553.26 233.06 551.73 235.74 552.49 238.81 549.87 242.73 550 244.78 548.56 246.1 546.64 251.95 545.27 253.02 545.81 254.22 545.15 257.23 541.11 257.74 539.94 255.59 537.02 254.51 535.26 249.94 534.17 249.43 531.37 250.11 530.55 248.41 526.97 247.65 525.91 246.41 524.84 243.16 522.65 242.63 524.06 241.69 524.2 240.38 521.24 238.82 519.5 236.87 520.52 235.22 522.46 234.35 522.72 232.8 521.62 231.81 524.5 230.59 523.48 228.75 525.29 226.8 525.79 225.31 527.64 225.59 531.93 224.63 531.98 222.61 533.68 219.98 535.65 218.89 537.1 218.92 538.85 214.12 539.3 210.4 538.33 207.64 536.49 205.54 538.3 204.44 539.19 200.07 541.43 196.73 541.26 194.89 542.17 190.3 540.78 188.23 542.79 184.52 542.59 183.39 545.71 180.98 545.15 178.52 542.45 177 542.97 173.73 545.92 172.28 547.79 171.96 547.27 170.14 549.15 167.9 550.56 167.67 550.2 165.76 553.55 163.51 554.46 162.39 554.51 160.46 555.8 159.1 559.41 161.09 561.29 160.79 564.25 162.39 567.93 163.17 567.33 161.55 569.96 161.42 569.08 159.68 569.8 158.64 573.17 160.76 576.32 162.07 581 162.96 Z"/>
<path d="M 398.39 248.56 397.51 250.74 396.18 249.37 398.39 248.56 Z M 409.66 212.94 411.85 214.81 410.82 216.09 411.92 218.77 413.57 219.64 414.8 218.63 417.19 220.08 416.84 222.08 414.53 222.02 411.9 223.86 411.51 226.04 408.86 225.2 410.91 223.62 408.24 221.01 410.9 220.76 411.31 217.36 409.15 214.04 407.29 214.46 406.2 216.27 404.76 216.48 404.87 218.79 403.42 220.03 403 217.36 403.97 215.2 406.21 215.76 407.38 213.57 409.66 212.94 Z" fill-rule="evenodd"/>
<path d="M 515.38 131.87 512.39 130.25 510.61 129.86 512.07 128.06 511.99 125.67 512.82 123.15 514.58 120.75 516.93 122.35 520.46 123.31 521.85 124.46 522.96 128.03 520.11 126.6 519.52 127.5 516.22 129.32 515.38 131.87 Z"/>
<path d="M 551.97 141.33 552.68 142.79 551.31 144.16 551.86 146.22 548.42 149.56 547.22 149.94 545.29 153.09 544.35 153.78 541.55 154.19 540.69 153.36 540.62 151.38 537.54 148.64 537.17 147.35 533.66 148.31 530.11 147.72 528.08 148.79 526.07 148.63 525.67 146.71 526.71 145.27 525.3 144.11 526.93 141.48 526.2 139.65 521.55 137.49 517.7 133.79 518.39 131.93 515.38 131.87 516.22 129.32 519.52 127.5 520.11 126.6 522.96 128.03 521.85 124.46 520.46 123.31 516.93 122.35 514.58 120.75 515.68 119.78 518.06 114.98 519.02 114.08 523.45 113.61 524.77 114.37 525.23 116.91 529.31 118.57 532.61 118.72 533.06 120.38 532.39 121.42 537.77 125.08 539.07 124.67 542.14 127.31 544.51 128.56 543.76 130.26 544.5 131.3 543.86 133.21 546.2 133.54 548.07 135.49 548.51 139.32 549.6 141.17 551.97 141.33 Z"/>
</g>
</svg>